<svg width="640" height="480" viewBox="0 0 640 480" fill="none" xmlns="http://www.w3.org/2000/svg">
  <rect width="640" height="480" rx="28" fill="#F4F0E8"/>
  <rect x="24" y="24" width="592" height="432" rx="24" fill="#F7F6F1"/>
  <rect x="24" y="24" width="180" height="432" rx="24" fill="#0B1F1E"/>
  <text x="52" y="70" fill="#F7F6F1" font-size="24" font-weight="700" font-family="ui-sans-serif, -apple-system, BlinkMacSystemFont, 'Segoe UI', sans-serif">Settings</text>
  <g fill="#CFE1DB" font-size="16" font-family="ui-sans-serif, -apple-system, BlinkMacSystemFont, 'Segoe UI', sans-serif">
    <text x="52" y="118">General</text>
    <text x="52" y="154">Providers</text>
    <text x="52" y="190">Capture</text>
    <text x="52" y="226">Privacy</text>
    <text x="52" y="262">Audio</text>
    <text x="52" y="298">Prompts</text>
  </g>
  <text x="234" y="70" fill="#0B1F1E" font-size="24" font-weight="700" font-family="ui-sans-serif, -apple-system, BlinkMacSystemFont, 'Segoe UI', sans-serif">Provider routing</text>
  <g font-family="ui-sans-serif, -apple-system, BlinkMacSystemFont, 'Segoe UI', sans-serif">
    <text x="234" y="126" fill="#304947" font-size="15">Summary provider</text>
    <rect x="234" y="138" width="330" height="42" rx="14" fill="#EAE3D6"/>
    <text x="254" y="164" fill="#0B1F1E" font-size="15">Local (Ollama)</text>
    <text x="234" y="220" fill="#304947" font-size="15">Vision provider</text>
    <rect x="234" y="232" width="330" height="42" rx="14" fill="#EAE3D6"/>
    <text x="254" y="258" fill="#0B1F1E" font-size="15">External compatible API</text>
    <text x="234" y="314" fill="#304947" font-size="15">OCR provider</text>
    <rect x="234" y="326" width="330" height="42" rx="14" fill="#EAE3D6"/>
    <text x="254" y="352" fill="#0B1F1E" font-size="15">Vision fallback enabled</text>
    <rect x="234" y="392" width="160" height="36" rx="12" fill="#72E1C2"/>
    <text x="314" y="415" fill="#0B1F1E" font-size="15" font-weight="700" text-anchor="middle">Forget credentials</text>
  </g>
</svg>
