<svg width="640" height="480" viewBox="0 0 640 480" fill="none" xmlns="http://www.w3.org/2000/svg">
  <rect width="640" height="480" rx="28" fill="#F4F0E8"/>
  <rect x="24" y="24" width="592" height="432" rx="24" fill="#0B1F1E"/>
  <rect x="44" y="44" width="552" height="46" rx="16" fill="#173632"/>
  <text x="70" y="72" fill="#F7F6F1" font-size="22" font-weight="700" font-family="ui-sans-serif, -apple-system, BlinkMacSystemFont, 'Segoe UI', sans-serif">Timeline</text>
  <rect x="44" y="112" width="164" height="320" rx="18" fill="#122C29"/>
  <text x="64" y="146" fill="#72E1C2" font-size="18" font-weight="700" font-family="ui-sans-serif, -apple-system, BlinkMacSystemFont, 'Segoe UI', sans-serif">Thursday</text>
  <g fill="#CFE1DB" font-size="13" font-family="ui-sans-serif, -apple-system, BlinkMacSystemFont, 'Segoe UI', sans-serif">
    <text x="64" y="184">09:14  Xcode</text>
    <text x="64" y="212">10:03  Safari</text>
    <text x="64" y="240">11:27  Settings</text>
    <text x="64" y="268">13:42  Notes</text>
    <text x="64" y="296">15:05  Mail</text>
    <text x="64" y="324">17:18  Obsidian</text>
  </g>
  <rect x="228" y="112" width="172" height="140" rx="18" fill="#D6F5EB"/>
  <text x="248" y="146" fill="#0B1F1E" font-size="18" font-weight="700" font-family="ui-sans-serif, -apple-system, BlinkMacSystemFont, 'Segoe UI', sans-serif">Session summary</text>
  <g fill="#17443E" font-size="13" font-family="ui-sans-serif, -apple-system, BlinkMacSystemFont, 'Segoe UI', sans-serif">
    <text x="248" y="178">release prep</text>
    <text x="248" y="202">provider routing</text>
    <text x="248" y="226">privacy cleanup</text>
  </g>
  <rect x="420" y="112" width="156" height="320" rx="18" fill="#F7F6F1"/>
  <text x="440" y="146" fill="#0B1F1E" font-size="18" font-weight="700" font-family="ui-sans-serif, -apple-system, BlinkMacSystemFont, 'Segoe UI', sans-serif">Search</text>
  <rect x="440" y="164" width="116" height="30" rx="10" fill="#EAE3D6"/>
  <rect x="440" y="216" width="116" height="42" rx="12" fill="#EAE3D6"/>
  <rect x="440" y="274" width="116" height="42" rx="12" fill="#EAE3D6"/>
  <rect x="440" y="332" width="116" height="42" rx="12" fill="#EAE3D6"/>
</svg>
